<svg width="696" height="505" viewBox="0 0 696 505" fill="none" xmlns="http://www.w3.org/2000/svg">
<path d="M170.31 177.29H55.8897C53.4497 177.29 51.4697 175.31 51.4697 172.87C51.4697 170.43 53.4497 168.45 55.8897 168.45H170.32C172.76 168.45 174.74 170.43 174.74 172.87C174.73 175.31 172.75 177.29 170.31 177.29Z" fill="white"/>
<path d="M381.16 59.06H306.61C304.11 59.06 302.08 57.03 302.08 54.53C302.08 52.03 304.11 50 306.61 50H381.16C383.66 50 385.69 52.03 385.69 54.53C385.69 57.03 383.66 59.06 381.16 59.06Z" fill="#FAFF00"/>
<path d="M106.84 235.64H93.6897C90.2297 235.64 87.4297 232.84 87.4297 229.38V217.03C87.4297 213.57 90.2297 210.77 93.6897 210.77H106.84C110.3 210.77 113.1 213.57 113.1 217.03V229.38C113.1 232.84 110.3 235.64 106.84 235.64Z" fill="#407FFE"/>
<path d="M489.48 454.9H482.3C480.41 454.9 478.89 453.37 478.89 451.49V444.75C478.89 442.86 480.42 441.34 482.3 441.34H489.48C491.37 441.34 492.89 442.87 492.89 444.75V451.49C492.89 453.37 491.36 454.9 489.48 454.9Z" fill="white"/>
<path d="M618.199 167.21H611.019C609.129 167.21 607.609 165.68 607.609 163.8V157.06C607.609 155.17 609.139 153.65 611.019 153.65H618.199C620.089 153.65 621.609 155.18 621.609 157.06V163.8C621.609 165.68 620.079 167.21 618.199 167.21Z" fill="#407FFE"/>
<path d="M116.37 375.37L80.1296 394.14L90.5696 399.2L77.5996 414.7L87.7196 422.98L100.24 406.34L108.64 415.34L116.37 375.37Z" fill="#FEFEF4"/>
<path d="M242.549 453.47H200.209C197.069 453.47 194.529 450.93 194.529 447.79C194.529 444.65 197.069 442.11 200.209 442.11H242.549C245.689 442.11 248.229 444.65 248.229 447.79C248.229 450.93 245.689 453.47 242.549 453.47Z" fill="#FAFF00"/>
<path d="M514.3 413.25H173.29C169.34 413.25 166.14 410.05 166.14 406.1V122.07C166.14 118.12 169.34 114.92 173.29 114.92H514.3C518.25 114.92 521.45 118.12 521.45 122.07V406.1C521.45 410.05 518.25 413.25 514.3 413.25Z" fill="#FCE7E4"/>
<path d="M166.14 150.82H521.45" stroke="#FEFEF4" stroke-width="1.9411" stroke-miterlimit="10"/>
<path d="M514.3 413.25H173.29C169.34 413.25 166.14 410.05 166.14 406.1V122.07C166.14 118.12 169.34 114.92 173.29 114.92H514.3C518.25 114.92 521.45 118.12 521.45 122.07V406.1C521.45 410.05 518.25 413.25 514.3 413.25Z" stroke="#FEFEF4" stroke-width="1.9411" stroke-miterlimit="10"/>
<path d="M196.18 138.249C198.947 138.249 201.19 136.006 201.19 133.239C201.19 130.473 198.947 128.229 196.18 128.229C193.413 128.229 191.17 130.473 191.17 133.239C191.17 136.006 193.413 138.249 196.18 138.249Z" stroke="#FEFEF4" stroke-width="1.9411" stroke-miterlimit="10"/>
<path d="M215.64 138.249C218.407 138.249 220.65 136.006 220.65 133.239C220.65 130.473 218.407 128.229 215.64 128.229C212.873 128.229 210.63 130.473 210.63 133.239C210.63 136.006 212.873 138.249 215.64 138.249Z" stroke="#FEFEF4" stroke-width="1.9411" stroke-miterlimit="10"/>
<path d="M235.11 138.249C237.877 138.249 240.12 136.006 240.12 133.239C240.12 130.473 237.877 128.229 235.11 128.229C232.343 128.229 230.1 130.473 230.1 133.239C230.1 136.006 232.343 138.249 235.11 138.249Z" stroke="#FEFEF4" stroke-width="1.9411" stroke-miterlimit="10"/>
<path d="M239.9 359.481H59.35C53.63 359.481 49 354.841 49 349.131V282.201C49 276.481 53.64 271.851 59.35 271.851H239.9C245.62 271.851 250.25 276.491 250.25 282.201V349.131C250.26 354.851 245.62 359.481 239.9 359.481Z" fill="#681BCB"/>
<path d="M73.4003 288.121C73.4003 290.221 71.6903 291.931 69.5903 291.931C67.4903 291.931 65.7803 290.221 65.7803 288.121C65.7803 286.021 67.4903 284.311 69.5903 284.311C71.7003 284.311 73.4003 286.011 73.4003 288.121Z" stroke="#FEFEF4" stroke-width="1.4768" stroke-miterlimit="10"/>
<path d="M84.3998 291.931C86.504 291.931 88.2098 290.225 88.2098 288.121C88.2098 286.016 86.504 284.311 84.3998 284.311C82.2956 284.311 80.5898 286.016 80.5898 288.121C80.5898 290.225 82.2956 291.931 84.3998 291.931Z" stroke="#FEFEF4" stroke-width="1.4768" stroke-miterlimit="10"/>
<path d="M99.2104 291.931C101.315 291.931 103.02 290.225 103.02 288.121C103.02 286.016 101.315 284.311 99.2104 284.311C97.1062 284.311 95.4004 286.016 95.4004 288.121C95.4004 290.225 97.1062 291.931 99.2104 291.931Z" stroke="#FEFEF4" stroke-width="1.4768" stroke-miterlimit="10"/>
<path d="M49 302.541H250.26" stroke="#FEFEF4" stroke-width="1.4768" stroke-miterlimit="10"/>
<path d="M564.39 160.6H483.39C476.63 160.6 471.15 155.12 471.15 148.36V83.0203C471.15 76.2603 476.63 70.7803 483.39 70.7803H564.39C571.15 70.7803 576.63 76.2603 576.63 83.0203V148.36C576.63 155.12 571.15 160.6 564.39 160.6Z" fill="#681BCB"/>
<path d="M517.23 125.91C507.18 125.91 499 117.73 499 107.68C499 97.6302 507.18 89.4502 517.23 89.4502C527.28 89.4502 535.46 97.6302 535.46 107.68C535.46 117.73 527.28 125.91 517.23 125.91ZM517.23 93.5902C509.46 93.5902 503.13 99.9102 503.13 107.69C503.13 115.46 509.45 121.79 517.23 121.79C525 121.79 531.33 115.47 531.33 107.69C531.33 99.9102 525.01 93.5902 517.23 93.5902Z" fill="#FEFEF4"/>
<path d="M530.102 117.673L527.182 120.594L532.563 125.975L535.483 123.054L530.102 117.673Z" fill="#FEFEF4"/>
<path d="M538.25 122.28L548.9 132.93C550.03 134.06 550.03 135.89 548.9 137.02L546.53 139.39C545.4 140.52 543.57 140.52 542.44 139.39L531.79 128.74C530.66 127.61 530.66 125.78 531.79 124.65L534.16 122.28C535.29 121.15 537.12 121.15 538.25 122.28Z" fill="#FEFEF4"/>
<path d="M135.22 132.44H88.67C80.86 132.44 74.54 126.11 74.54 118.31V78.8302C74.54 71.0202 80.87 64.7002 88.67 64.7002H135.22C143.03 64.7002 149.35 71.0302 149.35 78.8302V118.31C149.35 126.12 143.03 132.44 135.22 132.44Z" fill="#407FFE"/>
<path d="M111.95 113.17C103.21 113.17 96.0996 106.06 96.0996 97.3197C96.0996 88.5797 103.21 81.4697 111.95 81.4697C120.69 81.4697 127.8 88.5797 127.8 97.3197C127.79 106.06 120.68 113.17 111.95 113.17ZM111.95 86.2297C105.84 86.2297 100.86 91.1997 100.86 97.3197C100.86 103.43 105.83 108.41 111.95 108.41C118.06 108.41 123.04 103.44 123.04 97.3197C123.03 91.1997 118.06 86.2297 111.95 86.2297Z" fill="#FEFEF4"/>
<path d="M121.289 86.2295L103.109 108.399" stroke="#FEFEF4" stroke-width="4.522" stroke-miterlimit="10"/>
<path d="M633.08 370.76H464.44C457.23 370.76 451.39 364.92 451.39 357.71V231.87C451.39 224.66 457.23 218.82 464.44 218.82H633.08C640.29 218.82 646.13 224.66 646.13 231.87V357.71C646.13 364.92 640.28 370.76 633.08 370.76Z" fill="#407FFE"/>
<path d="M479.664 311.541V306.516L501.832 271.443H505.477V279.226H503.014L486.265 305.728V306.122H516.117V311.541H479.664ZM503.408 321.886V310.014V307.674V271.443H509.221V321.886H503.408ZM541.8 322.575C538.089 322.575 534.928 321.566 532.318 319.546C529.707 317.51 527.712 314.562 526.332 310.704C524.953 306.828 524.264 302.149 524.264 296.664C524.264 291.213 524.953 286.558 526.332 282.699C527.728 278.824 529.731 275.868 532.342 273.832C534.969 271.78 538.122 270.753 541.8 270.753C545.478 270.753 548.623 271.78 551.234 273.832C553.861 275.868 555.864 278.824 557.243 282.699C558.639 286.558 559.337 291.213 559.337 296.664C559.337 302.149 558.647 306.828 557.268 310.704C555.889 314.562 553.894 317.51 551.283 319.546C548.672 321.566 545.511 322.575 541.8 322.575ZM541.8 317.157C545.478 317.157 548.335 315.383 550.372 311.837C552.408 308.29 553.426 303.232 553.426 296.664C553.426 292.297 552.958 288.577 552.022 285.507C551.102 282.436 549.772 280.096 548.032 278.487C546.308 276.878 544.23 276.074 541.8 276.074C538.155 276.074 535.306 277.872 533.254 281.468C531.201 285.047 530.175 290.113 530.175 296.664C530.175 301.032 530.635 304.743 531.554 307.797C532.474 310.851 533.795 313.175 535.52 314.768C537.26 316.36 539.354 317.157 541.8 317.157ZM567.514 311.541V306.516L589.681 271.443H593.327V279.226H590.864L574.115 305.728V306.122H603.967V311.541H567.514ZM591.258 321.886V310.014V307.674V271.443H597.07V321.886H591.258Z" fill="#FEFEF4"/>
<path d="M471.54 236.86C473.578 236.86 475.23 235.208 475.23 233.17C475.23 231.133 473.578 229.48 471.54 229.48C469.502 229.48 467.85 231.133 467.85 233.17C467.85 235.208 469.502 236.86 471.54 236.86Z" stroke="#FEFEF4" stroke-width="1.4304" stroke-miterlimit="10"/>
<path d="M485.889 236.86C487.927 236.86 489.579 235.208 489.579 233.17C489.579 231.133 487.927 229.48 485.889 229.48C483.851 229.48 482.199 231.133 482.199 233.17C482.199 235.208 483.851 236.86 485.889 236.86Z" stroke="#FEFEF4" stroke-width="1.4304" stroke-miterlimit="10"/>
<path d="M500.23 236.86C502.268 236.86 503.92 235.208 503.92 233.17C503.92 231.133 502.268 229.48 500.23 229.48C498.192 229.48 496.54 231.133 496.54 233.17C496.54 235.208 498.192 236.86 500.23 236.86Z" stroke="#FEFEF4" stroke-width="1.4304" stroke-miterlimit="10"/>
<path d="M451.39 248.57H646.13" stroke="#FEFEF4" stroke-width="1.4304" stroke-miterlimit="10"/>
<path d="M362.359 307.17L361.619 297.14L299.069 300.21V309.89C299.069 309.89 284.999 323.27 279.449 412.32H392.039C392.039 412.32 404.389 333.52 362.359 307.17Z" fill="#407FFE"/>
<path d="M299.069 309.9L362.359 307.17" stroke="black" stroke-width="1.5516" stroke-miterlimit="10"/>
<path d="M311.999 350.95L324.969 356.23L331.909 412.32" stroke="black" stroke-width="1.5516" stroke-miterlimit="10"/>
<path d="M230.689 287.779L247.969 230.739L285.979 244.989L267.739 299.619C263.999 310.899 251.109 316.229 240.499 310.859C232.049 306.579 227.909 296.829 230.689 287.779Z" fill="#FF9787"/>
<path d="M257.349 200.27C260.769 189.15 272.709 183.06 283.719 186.82C294.419 190.48 300.189 202.07 296.629 212.81L285.979 244.97L247.969 230.72L257.349 200.27Z" fill="#FEFEF4"/>
<path d="M260.04 283.499L216.63 201.189C216.63 201.189 217.62 186.319 192.92 185.429L192.93 185.449C192.59 185.429 192.26 185.399 191.92 185.399H183.66C182.13 185.399 180.73 186.479 180.52 187.999C180.28 189.759 181.51 191.269 183.16 191.479L191.49 192.659L180.16 195.679L178.04 196.459L162.61 186.259C161.38 185.379 159.66 185.789 158.95 187.119C158.39 188.169 158.64 189.459 159.55 190.219C160.5 191.009 162.03 192.329 163.71 193.769L160.3 191.729C159 190.949 157.32 191.489 156.72 192.879C156.25 193.969 156.6 195.229 157.57 195.919C158.4 196.509 159.47 197.259 160.61 198.059L159.43 197.599C158.13 197.089 156.6 197.459 155.8 198.609C154.72 200.169 155.37 202.289 157.08 202.999L173.94 210.059C176.85 211.279 179.63 212.039 183.06 211.229L198.09 207.689L231.72 301.829L260.04 283.499Z" fill="#FF9787"/>
<path d="M242.22 249.72L250.26 264.95" stroke="#DB5749" stroke-width="1.5" stroke-miterlimit="10"/>
<path d="M291.139 185.92L274.999 187.13C274.999 187.13 251.639 218.82 299.069 300.22L361.619 297.15L366.329 209.45L358.609 184.55H330.589L291.139 185.92Z" fill="#FEFEF4"/>
<path d="M272.83 240.05C272.83 240.05 268.18 230.26 271.17 208.58" stroke="#FCE7E4" stroke-width="1.5516" stroke-miterlimit="10"/>
<path d="M418.01 276.32L392.03 222.68L356.71 242.69L383.26 293.8C388.71 304.36 402.28 307.61 411.92 300.65C419.61 295.11 422.18 284.83 418.01 276.32Z" fill="#FF9787"/>
<path d="M378.02 194.059C372.9 183.609 360.16 179.459 349.87 184.899C339.87 190.179 335.99 202.539 341.18 212.589L356.72 242.699L392.04 222.689L378.02 194.059Z" fill="#FEFEF4"/>
<path d="M356.72 242.689L343.89 217.829" stroke="#FCE7E4" stroke-width="1.5516" stroke-miterlimit="10"/>
<path d="M472.229 184.55C471.439 183.4 469.899 183.04 468.599 183.54L461.049 186.49L468.139 180.49C469.309 179.5 469.639 177.74 468.759 176.49C467.739 175.05 465.789 174.83 464.499 175.88L457.909 181.19L463.529 173.84C464.459 172.62 464.409 170.83 463.269 169.8C461.969 168.61 460.019 168.82 458.969 170.11L447.869 181.63L436.549 178.6L444.879 177.42C446.529 177.21 447.769 175.7 447.519 173.94C447.309 172.42 445.909 171.34 444.379 171.34H436.119C431.239 171.34 426.479 173.04 422.869 176.28C422.809 176.33 422.749 176.36 422.689 176.41C417.619 180.41 419.469 188.6 419.469 188.6L388.359 276.68L419.189 290.36L436.959 195.77L448.309 195.79C449.009 195.86 449.719 195.85 450.429 195.79H450.519H450.509C451.729 195.68 452.939 195.39 454.089 194.91L470.949 188.94C472.659 188.23 473.309 186.11 472.229 184.55Z" fill="#FF9787"/>
<path d="M400.449 240.05L393.729 263.51" stroke="#DB5749" stroke-width="1.5" stroke-miterlimit="10"/>
<path d="M289.89 113.259C287.95 114.589 274.91 117.979 274.65 120.349C274.65 120.349 278.94 137.119 274.55 140.249C262.67 148.709 258.87 165.299 258.87 165.299C258.87 165.299 290.21 188.769 373.51 164.129C373.51 164.129 374.51 154.149 359.36 146.909C355.04 144.839 351.19 141.729 348.76 137.489C346.88 134.209 346.59 132.819 346.09 129.879C344.69 121.649 321.99 91.2393 289.89 113.259Z" fill="black"/>
<path d="M291.12 138.4C291.5 143.9 287.35 148.68 281.85 149.06C276.35 149.44 271.57 145.29 271.19 139.79C270.81 134.29 274.96 129.51 280.46 129.13C285.96 128.74 290.73 132.89 291.12 138.4Z" fill="#DB5749"/>
<path d="M295.63 162.869L297.01 184.599C297.48 192.229 300.6 197.429 308.11 196.909C314.52 196.459 322.14 191.329 322.49 184.919L318.67 150.829L295.63 162.869Z" fill="#FF9787"/>
<path d="M291.14 185.92L330.58 184.55C330.58 184.55 329.62 203.94 306.18 202.13C289.89 200.86 291.14 185.92 291.14 185.92Z" fill="#FF9787"/>
<path d="M296.77 180.769L321.98 156.119L295.44 160.639L296.77 180.769Z" fill="#DB5749"/>
<path d="M302.24 166.38C289.4 166.42 278.8 156.31 278.42 145.83L277.66 121.1C277.18 107.96 287.21 96.81 300.32 95.9C313.74 94.97 327.74 104.93 328.67 118.35L329.06 138.25C329.37 153.64 317.6 165.31 302.24 166.38Z" fill="#FF9787"/>
<path d="M291.88 137.12L291.14 143.26L294.32 143.38" stroke="black" stroke-width="1.2385" stroke-miterlimit="10" stroke-linecap="round" stroke-linejoin="round"/>
<path d="M304.559 122.13C304.559 122.13 297.469 121.55 297.399 124.43C297.399 124.43 297.409 126.38 303.589 126.77C309.779 127.16 311.389 126.7 311.949 124.87C312.519 123.04 307.889 122.15 304.559 122.13Z" fill="black"/>
<path d="M284.01 126.34C284.01 126.34 289.38 125.91 289.89 128.5C289.89 128.5 290.19 130.26 285.49 130.53C280.79 130.8 279.33 130.22 279.24 128.73C279.12 126.96 281.45 126.32 284.01 126.34Z" fill="black"/>
<path d="M287.12 134.78C287.16 136.03 286.18 137.08 284.93 137.12C283.68 137.16 282.63 136.18 282.59 134.93C282.55 133.68 283.53 132.63 284.78 132.59C286.03 132.54 287.08 133.52 287.12 134.78Z" fill="black"/>
<path d="M306.18 134.15C306.22 135.4 305.24 136.45 303.99 136.49C302.74 136.53 301.69 135.55 301.65 134.3C301.61 133.05 302.59 132 303.84 131.96C305.09 131.92 306.14 132.9 306.18 134.15Z" fill="black"/>
<path d="M299.54 147.65C299.54 147.65 296.19 146.12 292.13 149.62" stroke="black" stroke-width="1.2385" stroke-miterlimit="10" stroke-linecap="round" stroke-linejoin="round"/>
<path d="M308.27 91.6395C305.07 91.4695 301.84 91.8195 298.75 92.6495C291.06 94.6995 277.26 100.39 274.89 115.16C274.1 119.05 274.65 120.36 274.65 120.36C274.65 120.36 300.43 121.37 315.68 114.17C317.87 123.46 319.9 129.21 329.08 138.25L337.23 126.01L346.4 134.23C346.45 134.54 346.43 93.6695 308.27 91.6395Z" fill="black"/>
<path d="M342.45 138.499C342.83 143.999 338.68 148.779 333.18 149.159C327.68 149.539 322.9 145.389 322.52 139.889C322.14 134.389 326.29 129.609 331.79 129.229C337.29 128.839 342.06 132.989 342.45 138.499Z" fill="#FF9787"/>
<path d="M328.67 142.05C328.67 142.05 328.17 134.83 335.15 135.48" stroke="black" stroke-width="1.2385" stroke-miterlimit="10" stroke-linecap="round" stroke-linejoin="round"/>
</svg>
